<svg width="25" height="25" viewBox="0 0 25 25" fill="none" xmlns="http://www.w3.org/2000/svg">
<path d="M7.29167 4.17233e-07H4.16667C3.0616 4.17233e-07 2.00179 0.438987 1.22039 1.22039C0.438987 2.00179 4.17233e-07 3.0616 4.17233e-07 4.16667V7.29167C4.17233e-07 8.39674 0.438987 9.45654 1.22039 10.2379C2.00179 11.0193 3.0616 11.4583 4.16667 11.4583H7.29167C8.39674 11.4583 9.45654 11.0193 10.2379 10.2379C11.0193 9.45654 11.4583 8.39674 11.4583 7.29167V4.16667C11.4583 3.0616 11.0193 2.00179 10.2379 1.22039C9.45654 0.438987 8.39674 4.17233e-07 7.29167 4.17233e-07ZM9.375 7.29167C9.375 7.8442 9.15551 8.37411 8.76481 8.76481C8.37411 9.15551 7.8442 9.375 7.29167 9.375H4.16667C3.61413 9.375 3.08423 9.15551 2.69353 8.76481C2.30283 8.37411 2.08333 7.8442 2.08333 7.29167V4.16667C2.08333 3.61413 2.30283 3.08423 2.69353 2.69353C3.08423 2.30283 3.61413 2.08333 4.16667 2.08333H7.29167C7.8442 2.08333 8.37411 2.30283 8.76481 2.69353C9.15551 3.08423 9.375 3.61413 9.375 4.16667V7.29167Z" fill="#EFF5FF"/>
<path d="M20.8333 0H17.7083C16.6033 0 15.5435 0.438987 14.7621 1.22039C13.9807 2.00179 13.5417 3.0616 13.5417 4.16667V7.29167C13.5417 8.39674 13.9807 9.45654 14.7621 10.2379C15.5435 11.0193 16.6033 11.4583 17.7083 11.4583H20.8333C21.9384 11.4583 22.9982 11.0193 23.7796 10.2379C24.561 9.45654 25 8.39674 25 7.29167V4.16667C25 3.0616 24.561 2.00179 23.7796 1.22039C22.9982 0.438987 21.9384 0 20.8333 0ZM22.9167 7.29167C22.9167 7.8442 22.6972 8.37411 22.3065 8.76481C21.9158 9.15551 21.3859 9.375 20.8333 9.375H17.7083C17.1558 9.375 16.6259 9.15551 16.2352 8.76481C15.8445 8.37411 15.625 7.8442 15.625 7.29167V4.16667C15.625 3.61413 15.8445 3.08423 16.2352 2.69353C16.6259 2.30283 17.1558 2.08333 17.7083 2.08333H20.8333C21.3859 2.08333 21.9158 2.30283 22.3065 2.69353C22.6972 3.08423 22.9167 3.61413 22.9167 4.16667V7.29167Z" fill="#EFF5FF"/>
<path d="M7.29167 13.5417H4.16667C3.0616 13.5417 2.00179 13.9807 1.22039 14.7621C0.438987 15.5435 0 16.6033 0 17.7083V20.8333C0 21.9384 0.438987 22.9982 1.22039 23.7796C2.00179 24.561 3.0616 25 4.16667 25H7.29167C8.39674 25 9.45654 24.561 10.2379 23.7796C11.0193 22.9982 11.4583 21.9384 11.4583 20.8333V17.7083C11.4583 16.6033 11.0193 15.5435 10.2379 14.7621C9.45654 13.9807 8.39674 13.5417 7.29167 13.5417ZM9.375 20.8333C9.375 21.3859 9.15551 21.9158 8.76481 22.3065C8.37411 22.6972 7.8442 22.9167 7.29167 22.9167H4.16667C3.61413 22.9167 3.08423 22.6972 2.69353 22.3065C2.30283 21.9158 2.08333 21.3859 2.08333 20.8333V17.7083C2.08333 17.1558 2.30283 16.6259 2.69353 16.2352C3.08423 15.8445 3.61413 15.625 4.16667 15.625H7.29167C7.8442 15.625 8.37411 15.8445 8.76481 16.2352C9.15551 16.6259 9.375 17.1558 9.375 17.7083V20.8333Z" fill="#EFF5FF"/>
<path d="M20.8333 13.5417H17.7083C16.6033 13.5417 15.5435 13.9807 14.7621 14.7621C13.9807 15.5435 13.5417 16.6033 13.5417 17.7083V20.8333C13.5417 21.9384 13.9807 22.9982 14.7621 23.7796C15.5435 24.561 16.6033 25 17.7083 25H20.8333C21.9384 25 22.9982 24.561 23.7796 23.7796C24.561 22.9982 25 21.9384 25 20.8333V17.7083C25 16.6033 24.561 15.5435 23.7796 14.7621C22.9982 13.9807 21.9384 13.5417 20.8333 13.5417ZM22.9167 20.8333C22.9167 21.3859 22.6972 21.9158 22.3065 22.3065C21.9158 22.6972 21.3859 22.9167 20.8333 22.9167H17.7083C17.1558 22.9167 16.6259 22.6972 16.2352 22.3065C15.8445 21.9158 15.625 21.3859 15.625 20.8333V17.7083C15.625 17.1558 15.8445 16.6259 16.2352 16.2352C16.6259 15.8445 17.1558 15.625 17.7083 15.625H20.8333C21.3859 15.625 21.9158 15.8445 22.3065 16.2352C22.6972 16.6259 22.9167 17.1558 22.9167 17.7083V20.8333Z" fill="#EFF5FF"/>
</svg>
