<svg width="39" height="35" viewBox="0 0 39 35" fill="none" xmlns="http://www.w3.org/2000/svg">
<path d="M35.7954 15.3125H21.4772V2.1875C21.4772 0.979385 20.4088 0 19.0908 0C17.7729 0 16.7045 0.979385 16.7045 2.1875V15.3125H2.3863C1.06836 15.3125 -6.10352e-05 16.2919 -6.10352e-05 17.5C-6.10352e-05 18.7081 1.06836 19.6875 2.3863 19.6875H16.7045V32.8125C16.7045 34.0206 17.7729 35 19.0908 35C20.4088 35 21.4772 34.0206 21.4772 32.8125V19.6875H35.7954C37.1133 19.6875 38.1818 18.7081 38.1818 17.5C38.1818 16.2919 37.1133 15.3125 35.7954 15.3125Z" fill="#EFF5FF"/>
</svg>
