<svg width="25" height="25" viewBox="0 0 25 25" fill="none" xmlns="http://www.w3.org/2000/svg">
<path d="M24.5417 22.3388L19.703 17.498C23.3235 12.6597 22.3363 5.80244 17.498 2.18189C12.6597 -1.43865 5.80243 -0.451446 2.18189 4.38686C-1.43865 9.22517 -0.451446 16.0825 4.38686 19.703C8.27339 22.6113 13.6115 22.6113 17.498 19.703L22.3388 24.5437C22.9471 25.1521 23.9334 25.1521 24.5416 24.5437C25.15 23.9354 25.15 22.9491 24.5416 22.3409L24.5417 22.3388ZM10.9828 18.7687C6.68273 18.7687 3.19688 15.2828 3.19688 10.9828C3.19688 6.68273 6.68273 3.19688 10.9828 3.19688C15.2828 3.19688 18.7687 6.68273 18.7687 10.9828C18.7641 15.2809 15.2809 18.7641 10.9828 18.7687Z" fill="#EFF5FF"/>
</svg>
